<svg width="70" height="67" viewBox="0 0 70 67" fill="none" xmlns="http://www.w3.org/2000/svg">
<path d="M0 53.4479C0 49.8596 2.90888 46.9507 6.49716 46.9507H20.5974V66.0275H6.49716C2.90888 66.0275 0 63.1186 0 59.5303V53.4479Z" fill="#D3C5FF"/>
<path d="M8.98543 5.47966H5.94026C2.65954 5.47966 0 8.1392 0 11.4199V48.4715C0.967662 46.1214 5.94421 43.9096 8.98543 43.9096V5.47966Z" fill="#D3C5FF"/>
<path fill-rule="evenodd" clip-rule="evenodd" d="M39.7683 21.6534L29.8775 31.5442L28.8462 32.5755C28.7996 32.6221 28.7634 32.6781 28.7402 32.7397L23.7489 45.9562C23.636 46.2551 23.9284 46.5476 24.2274 46.4347L37.4438 41.4434C37.5055 41.4201 37.5614 41.384 37.608 41.3374L38.6394 40.3061L57.292 21.6534H64.9719V66.0276H11.7505V46.7435V21.6534H39.7683Z" fill="#D3C5FF"/>
<path d="M68.0309 4.87346L65.1264 1.96894C64.039 0.881523 62.2759 0.881525 61.1885 1.96894L31.7802 31.3773C34.3705 31.3284 38.7399 35.6782 38.6226 38.2197L68.0309 8.81134C69.1183 7.72392 69.1183 5.96088 68.0309 4.87346Z" fill="#E6DEFF"/>
<path d="M26.4793 44.0085L37.4317 39.2891C37.566 39.2313 37.6689 39.1136 37.6836 38.9681C37.9275 36.5603 33.589 32.3775 31.0703 32.3419C30.9042 32.3395 30.7622 32.4488 30.6964 32.6014L25.9914 43.5206C25.8585 43.829 26.1708 44.1414 26.4793 44.0085Z" fill="#E6DEFF"/>
</svg>
